<svg width="128" height="128" viewBox="0 0 128 128" fill="none" xmlns="http://www.w3.org/2000/svg">
  <defs>
    <filter id="shadow" x="6" y="8" width="116" height="114" filterUnits="userSpaceOnUse">
      <feDropShadow dx="0" dy="3" stdDeviation="3.5" flood-color="#05110B" flood-opacity="0.55"/>
    </filter>
    <linearGradient id="bodyGrad" x1="34" y1="34" x2="100" y2="92" gradientUnits="userSpaceOnUse">
      <stop stop-color="#A9F5BE"/>
      <stop offset="1" stop-color="#74E39D"/>
    </linearGradient>
    <linearGradient id="wingGrad" x1="40" y1="74" x2="77" y2="105" gradientUnits="userSpaceOnUse">
      <stop stop-color="#95F0B3"/>
      <stop offset="1" stop-color="#66D88E"/>
    </linearGradient>
    <linearGradient id="flameGrad" x1="24" y1="82" x2="46" y2="106" gradientUnits="userSpaceOnUse">
      <stop stop-color="#F9DB7B"/>
      <stop offset="1" stop-color="#D8A933"/>
    </linearGradient>
  </defs>

  <g filter="url(#shadow)">
    <path d="M87.8 22.5c14.2 0 24.6 8.9 24.6 23.4 0 19.8-14 34.2-33.9 34.2h-9.7L53.9 95.1c-5.2 5.2-13.9 5.2-19.1 0l-.7-.7 18-18h-2.5c-13.1 0-22.8-9.8-22.8-22.9 0-10.9 6.6-20.4 16.5-24.2L71.4 24c5.2-1 10.6-1.5 16.4-1.5z" fill="url(#bodyGrad)" stroke="#1F2D2A" stroke-width="4.4" stroke-linejoin="round"/>
    <path d="M56.8 91.3l20.9 1.6c0 12.8-9.6 21.1-22.7 21.1l-12.7-1.2c0-11.3 7.6-20.7 14.5-21.5z" fill="url(#wingGrad)" stroke="#1F2D2A" stroke-width="4.2" stroke-linejoin="round"/>
    <path d="M41.1 83.1c-9.1 2.7-16.5 10.2-19 20l-2 7.8c-.5 1.9.6 3.9 2.5 4.4.3.1.6.1.9.2l8.4.8c11.2 1.1 20.6-6.8 20.6-18.3v-14.9l-11.4-.1z" fill="url(#flameGrad)" stroke="#3A3017" stroke-width="3.5" stroke-linejoin="round"/>
    <circle cx="85.5" cy="46.9" r="8.6" fill="#0E171E"/>
    <circle cx="86.3" cy="46.1" r="3.2" fill="#1F313A" opacity=".75"/>
  </g>

  <circle cx="22" cy="26" r="4.2" fill="#A4F4BA" opacity=".95"/>
  <circle cx="12.8" cy="78.2" r="3.6" fill="#A4F4BA" opacity=".95"/>
  <circle cx="106.2" cy="98.2" r="4.1" fill="#A4F4BA" opacity=".95"/>
  <circle cx="98.4" cy="18.2" r="2.9" fill="#A4F4BA" opacity=".95"/>
</svg>
